<?xml version="1.0" encoding="UTF-8" standalone="no"?>
<!DOCTYPE svg PUBLIC "-//W3C//DTD SVG 1.1//EN" "http://www.w3.org/Graphics/SVG/1.1/DTD/svg11.dtd">
<!-- addwatch -->
<svg version="1.1" id="Layer_1" xmlns="http://www.w3.org/2000/svg" xmlns:xlink="http://www.w3.org/1999/xlink"
x="0px" y="0px" width="16px" height="16px" viewBox="0 0 16 16" xml:space="preserve">
    <rect style="fill:#ff0000;stroke:none;fill-opacity:1" width="1.3" height="1.3" x="0.0" y="3.0" />
    <rect style="fill:#ff0000;stroke:none;fill-opacity:1" width="1.3" height="1.3" x="0.0" y="4.0" />
    <rect style="fill:#000000;stroke:none;fill-opacity:1" width="1.3" height="1.3" x="0.0" y="11.0" />
    <rect style="fill:#000000;stroke:none;fill-opacity:1" width="1.3" height="1.3" x="0.0" y="12.0" />
    <rect style="fill:#000000;stroke:none;fill-opacity:1" width="1.3" height="1.3" x="0.0" y="13.0" />
    <rect style="fill:#ff0000;stroke:none;fill-opacity:1" width="1.3" height="1.3" x="1.0" y="3.0" />
    <rect style="fill:#ff0000;stroke:none;fill-opacity:1" width="1.3" height="1.3" x="1.0" y="4.0" />
    <rect style="fill:#000000;stroke:none;fill-opacity:1" width="1.3" height="1.3" x="1.0" y="11.0" />
    <rect style="fill:#00ffff;stroke:none;fill-opacity:1" width="1.3" height="1.3" x="1.0" y="12.0" />
    <rect style="fill:#00ffff;stroke:none;fill-opacity:1" width="1.3" height="1.3" x="1.0" y="13.0" />
    <rect style="fill:#000000;stroke:none;fill-opacity:1" width="1.3" height="1.3" x="1.0" y="14.0" />
    <rect style="fill:#ff0000;stroke:none;fill-opacity:1" width="1.3" height="1.3" x="2.0" y="1.0" />
    <rect style="fill:#ff0000;stroke:none;fill-opacity:1" width="1.3" height="1.3" x="2.0" y="2.0" />
    <rect style="fill:#ff0000;stroke:none;fill-opacity:1" width="1.3" height="1.3" x="2.0" y="3.0" />
    <rect style="fill:#ff0000;stroke:none;fill-opacity:1" width="1.3" height="1.3" x="2.0" y="4.0" />
    <rect style="fill:#ff0000;stroke:none;fill-opacity:1" width="1.3" height="1.3" x="2.0" y="5.0" />
    <rect style="fill:#ff0000;stroke:none;fill-opacity:1" width="1.3" height="1.3" x="2.0" y="6.0" />
    <rect style="fill:#000000;stroke:none;fill-opacity:1" width="1.3" height="1.3" x="2.0" y="7.0" />
    <rect style="fill:#000000;stroke:none;fill-opacity:1" width="1.3" height="1.3" x="2.0" y="8.0" />
    <rect style="fill:#000000;stroke:none;fill-opacity:1" width="1.3" height="1.3" x="2.0" y="9.0" />
    <rect style="fill:#000000;stroke:none;fill-opacity:1" width="1.3" height="1.3" x="2.0" y="10.0" />
    <rect style="fill:#00ffff;stroke:none;fill-opacity:1" width="1.3" height="1.3" x="2.0" y="11.0" />
    <rect style="fill:#00ffff;stroke:none;fill-opacity:1" width="1.3" height="1.3" x="2.0" y="12.0" />
    <rect style="fill:#00ffff;stroke:none;fill-opacity:1" width="1.3" height="1.3" x="2.0" y="13.0" />
    <rect style="fill:#000000;stroke:none;fill-opacity:1" width="1.3" height="1.3" x="2.0" y="14.0" />
    <rect style="fill:#ff0000;stroke:none;fill-opacity:1" width="1.3" height="1.3" x="3.0" y="1.0" />
    <rect style="fill:#ff0000;stroke:none;fill-opacity:1" width="1.3" height="1.3" x="3.0" y="2.0" />
    <rect style="fill:#ff0000;stroke:none;fill-opacity:1" width="1.3" height="1.3" x="3.0" y="3.0" />
    <rect style="fill:#ff0000;stroke:none;fill-opacity:1" width="1.3" height="1.3" x="3.0" y="4.0" />
    <rect style="fill:#ff0000;stroke:none;fill-opacity:1" width="1.3" height="1.3" x="3.0" y="5.0" />
    <rect style="fill:#ff0000;stroke:none;fill-opacity:1" width="1.3" height="1.3" x="3.0" y="6.0" />
    <rect style="fill:#ffffff;stroke:none;fill-opacity:1" width="1.3" height="1.3" x="3.0" y="7.0" />
    <rect style="fill:#ffffff;stroke:none;fill-opacity:1" width="1.3" height="1.3" x="3.0" y="8.0" />
    <rect style="fill:#ffffff;stroke:none;fill-opacity:1" width="1.3" height="1.3" x="3.0" y="9.0" />
    <rect style="fill:#000000;stroke:none;fill-opacity:1" width="1.3" height="1.3" x="3.0" y="10.0" />
    <rect style="fill:#000000;stroke:none;fill-opacity:1" width="1.3" height="1.3" x="3.0" y="11.0" />
    <rect style="fill:#000000;stroke:none;fill-opacity:1" width="1.3" height="1.3" x="3.0" y="12.0" />
    <rect style="fill:#000000;stroke:none;fill-opacity:1" width="1.3" height="1.3" x="3.0" y="13.0" />
    <rect style="fill:#000080;stroke:none;fill-opacity:1" width="1.3" height="1.3" x="4.0" y="1.0" />
    <rect style="fill:#000080;stroke:none;fill-opacity:1" width="1.3" height="1.3" x="4.0" y="2.0" />
    <rect style="fill:#ff0000;stroke:none;fill-opacity:1" width="1.3" height="1.3" x="4.0" y="3.0" />
    <rect style="fill:#ff0000;stroke:none;fill-opacity:1" width="1.3" height="1.3" x="4.0" y="4.0" />
    <rect style="fill:#ffffff;stroke:none;fill-opacity:1" width="1.3" height="1.3" x="4.0" y="5.0" />
    <rect style="fill:#808080;stroke:none;fill-opacity:1" width="1.3" height="1.3" x="4.0" y="6.0" />
    <rect style="fill:#ffffff;stroke:none;fill-opacity:1" width="1.3" height="1.3" x="4.0" y="7.0" />
    <rect style="fill:#000000;stroke:none;fill-opacity:1" width="1.3" height="1.3" x="4.0" y="8.0" />
    <rect style="fill:#000000;stroke:none;fill-opacity:1" width="1.3" height="1.3" x="4.0" y="9.0" />
    <rect style="fill:#ffffff;stroke:none;fill-opacity:1" width="1.3" height="1.3" x="4.0" y="10.0" />
    <rect style="fill:#000000;stroke:none;fill-opacity:1" width="1.3" height="1.3" x="4.0" y="11.0" />
    <rect style="fill:#000000;stroke:none;fill-opacity:1" width="1.3" height="1.3" x="4.0" y="12.0" />
    <rect style="fill:#000080;stroke:none;fill-opacity:1" width="1.3" height="1.3" x="5.0" y="1.0" />
    <rect style="fill:#000080;stroke:none;fill-opacity:1" width="1.3" height="1.3" x="5.0" y="2.0" />
    <rect style="fill:#ff0000;stroke:none;fill-opacity:1" width="1.3" height="1.3" x="5.0" y="3.0" />
    <rect style="fill:#ff0000;stroke:none;fill-opacity:1" width="1.3" height="1.3" x="5.0" y="4.0" />
    <rect style="fill:#ffffff;stroke:none;fill-opacity:1" width="1.3" height="1.3" x="5.0" y="5.0" />
    <rect style="fill:#808080;stroke:none;fill-opacity:1" width="1.3" height="1.3" x="5.0" y="6.0" />
    <rect style="fill:#000000;stroke:none;fill-opacity:1" width="1.3" height="1.3" x="5.0" y="7.0" />
    <rect style="fill:#000000;stroke:none;fill-opacity:1" width="1.3" height="1.3" x="5.0" y="8.0" />
    <rect style="fill:#ffffff;stroke:none;fill-opacity:1" width="1.3" height="1.3" x="5.0" y="9.0" />
    <rect style="fill:#ffffff;stroke:none;fill-opacity:1" width="1.3" height="1.3" x="5.0" y="10.0" />
    <rect style="fill:#000000;stroke:none;fill-opacity:1" width="1.3" height="1.3" x="5.0" y="11.0" />
    <rect style="fill:#000000;stroke:none;fill-opacity:1" width="1.3" height="1.3" x="5.0" y="12.0" />
    <rect style="fill:#000080;stroke:none;fill-opacity:1" width="1.3" height="1.3" x="6.0" y="1.0" />
    <rect style="fill:#000080;stroke:none;fill-opacity:1" width="1.3" height="1.3" x="6.0" y="2.0" />
    <rect style="fill:#ffffff;stroke:none;fill-opacity:1" width="1.3" height="1.3" x="6.0" y="3.0" />
    <rect style="fill:#808080;stroke:none;fill-opacity:1" width="1.3" height="1.3" x="6.0" y="4.0" />
    <rect style="fill:#ffffff;stroke:none;fill-opacity:1" width="1.3" height="1.3" x="6.0" y="5.0" />
    <rect style="fill:#808080;stroke:none;fill-opacity:1" width="1.3" height="1.3" x="6.0" y="6.0" />
    <rect style="fill:#000000;stroke:none;fill-opacity:1" width="1.3" height="1.3" x="6.0" y="7.0" />
    <rect style="fill:#ffffff;stroke:none;fill-opacity:1" width="1.3" height="1.3" x="6.0" y="8.0" />
    <rect style="fill:#ffffff;stroke:none;fill-opacity:1" width="1.3" height="1.3" x="6.0" y="9.0" />
    <rect style="fill:#ffffff;stroke:none;fill-opacity:1" width="1.3" height="1.3" x="6.0" y="10.0" />
    <rect style="fill:#000000;stroke:none;fill-opacity:1" width="1.3" height="1.3" x="6.0" y="11.0" />
    <rect style="fill:#000000;stroke:none;fill-opacity:1" width="1.3" height="1.3" x="6.0" y="12.0" />
    <rect style="fill:#000000;stroke:none;fill-opacity:1" width="1.3" height="1.3" x="6.0" y="13.0" />
    <rect style="fill:#000080;stroke:none;fill-opacity:1" width="1.3" height="1.3" x="7.0" y="1.0" />
    <rect style="fill:#000080;stroke:none;fill-opacity:1" width="1.3" height="1.3" x="7.0" y="2.0" />
    <rect style="fill:#ffffff;stroke:none;fill-opacity:1" width="1.3" height="1.3" x="7.0" y="3.0" />
    <rect style="fill:#ffffff;stroke:none;fill-opacity:1" width="1.3" height="1.3" x="7.0" y="4.0" />
    <rect style="fill:#ffffff;stroke:none;fill-opacity:1" width="1.3" height="1.3" x="7.0" y="5.0" />
    <rect style="fill:#808080;stroke:none;fill-opacity:1" width="1.3" height="1.3" x="7.0" y="6.0" />
    <rect style="fill:#ffffff;stroke:none;fill-opacity:1" width="1.3" height="1.3" x="7.0" y="7.0" />
    <rect style="fill:#808080;stroke:none;fill-opacity:1" width="1.3" height="1.3" x="7.0" y="8.0" />
    <rect style="fill:#ffffff;stroke:none;fill-opacity:1" width="1.3" height="1.3" x="7.0" y="9.0" />
    <rect style="fill:#ffffff;stroke:none;fill-opacity:1" width="1.3" height="1.3" x="7.0" y="10.0" />
    <rect style="fill:#000000;stroke:none;fill-opacity:1" width="1.3" height="1.3" x="7.0" y="11.0" />
    <rect style="fill:#00ffff;stroke:none;fill-opacity:1" width="1.3" height="1.3" x="7.0" y="12.0" />
    <rect style="fill:#00ffff;stroke:none;fill-opacity:1" width="1.3" height="1.3" x="7.0" y="13.0" />
    <rect style="fill:#000000;stroke:none;fill-opacity:1" width="1.3" height="1.3" x="7.0" y="14.0" />
    <rect style="fill:#000080;stroke:none;fill-opacity:1" width="1.3" height="1.3" x="8.0" y="1.0" />
    <rect style="fill:#000080;stroke:none;fill-opacity:1" width="1.3" height="1.3" x="8.0" y="2.0" />
    <rect style="fill:#ffffff;stroke:none;fill-opacity:1" width="1.3" height="1.3" x="8.0" y="3.0" />
    <rect style="fill:#ffffff;stroke:none;fill-opacity:1" width="1.3" height="1.3" x="8.0" y="4.0" />
    <rect style="fill:#ffffff;stroke:none;fill-opacity:1" width="1.3" height="1.3" x="8.0" y="5.0" />
    <rect style="fill:#808080;stroke:none;fill-opacity:1" width="1.3" height="1.3" x="8.0" y="6.0" />
    <rect style="fill:#ffffff;stroke:none;fill-opacity:1" width="1.3" height="1.3" x="8.0" y="7.0" />
    <rect style="fill:#808080;stroke:none;fill-opacity:1" width="1.3" height="1.3" x="8.0" y="8.0" />
    <rect style="fill:#ffffff;stroke:none;fill-opacity:1" width="1.3" height="1.3" x="8.0" y="9.0" />
    <rect style="fill:#ffffff;stroke:none;fill-opacity:1" width="1.3" height="1.3" x="8.0" y="10.0" />
    <rect style="fill:#00ffff;stroke:none;fill-opacity:1" width="1.3" height="1.3" x="8.0" y="11.0" />
    <rect style="fill:#00ffff;stroke:none;fill-opacity:1" width="1.3" height="1.3" x="8.0" y="12.0" />
    <rect style="fill:#00ffff;stroke:none;fill-opacity:1" width="1.3" height="1.3" x="8.0" y="13.0" />
    <rect style="fill:#000000;stroke:none;fill-opacity:1" width="1.3" height="1.3" x="8.0" y="14.0" />
    <rect style="fill:#000080;stroke:none;fill-opacity:1" width="1.3" height="1.3" x="9.0" y="1.0" />
    <rect style="fill:#000080;stroke:none;fill-opacity:1" width="1.3" height="1.3" x="9.0" y="2.0" />
    <rect style="fill:#ffffff;stroke:none;fill-opacity:1" width="1.3" height="1.3" x="9.0" y="3.0" />
    <rect style="fill:#808080;stroke:none;fill-opacity:1" width="1.3" height="1.3" x="9.0" y="4.0" />
    <rect style="fill:#ffffff;stroke:none;fill-opacity:1" width="1.3" height="1.3" x="9.0" y="5.0" />
    <rect style="fill:#ffffff;stroke:none;fill-opacity:1" width="1.3" height="1.3" x="9.0" y="6.0" />
    <rect style="fill:#ffffff;stroke:none;fill-opacity:1" width="1.3" height="1.3" x="9.0" y="7.0" />
    <rect style="fill:#ffffff;stroke:none;fill-opacity:1" width="1.3" height="1.3" x="9.0" y="8.0" />
    <rect style="fill:#000000;stroke:none;fill-opacity:1" width="1.3" height="1.3" x="9.0" y="9.0" />
    <rect style="fill:#000000;stroke:none;fill-opacity:1" width="1.3" height="1.3" x="9.0" y="10.0" />
    <rect style="fill:#000000;stroke:none;fill-opacity:1" width="1.3" height="1.3" x="9.0" y="11.0" />
    <rect style="fill:#000000;stroke:none;fill-opacity:1" width="1.3" height="1.3" x="9.0" y="12.0" />
    <rect style="fill:#000000;stroke:none;fill-opacity:1" width="1.3" height="1.3" x="9.0" y="13.0" />
    <rect style="fill:#000080;stroke:none;fill-opacity:1" width="1.3" height="1.3" x="10.0" y="1.0" />
    <rect style="fill:#000080;stroke:none;fill-opacity:1" width="1.3" height="1.3" x="10.0" y="2.0" />
    <rect style="fill:#ffffff;stroke:none;fill-opacity:1" width="1.3" height="1.3" x="10.0" y="3.0" />
    <rect style="fill:#808080;stroke:none;fill-opacity:1" width="1.3" height="1.3" x="10.0" y="4.0" />
    <rect style="fill:#ffffff;stroke:none;fill-opacity:1" width="1.3" height="1.3" x="10.0" y="5.0" />
    <rect style="fill:#808080;stroke:none;fill-opacity:1" width="1.3" height="1.3" x="10.0" y="6.0" />
    <rect style="fill:#ffffff;stroke:none;fill-opacity:1" width="1.3" height="1.3" x="10.0" y="7.0" />
    <rect style="fill:#000000;stroke:none;fill-opacity:1" width="1.3" height="1.3" x="10.0" y="8.0" />
    <rect style="fill:#000000;stroke:none;fill-opacity:1" width="1.3" height="1.3" x="10.0" y="9.0" />
    <rect style="fill:#ffffff;stroke:none;fill-opacity:1" width="1.3" height="1.3" x="10.0" y="10.0" />
    <rect style="fill:#000000;stroke:none;fill-opacity:1" width="1.3" height="1.3" x="10.0" y="11.0" />
    <rect style="fill:#000000;stroke:none;fill-opacity:1" width="1.3" height="1.3" x="10.0" y="12.0" />
    <rect style="fill:#000080;stroke:none;fill-opacity:1" width="1.3" height="1.3" x="11.0" y="1.0" />
    <rect style="fill:#000080;stroke:none;fill-opacity:1" width="1.3" height="1.3" x="11.0" y="2.0" />
    <rect style="fill:#ffffff;stroke:none;fill-opacity:1" width="1.3" height="1.3" x="11.0" y="3.0" />
    <rect style="fill:#808080;stroke:none;fill-opacity:1" width="1.3" height="1.3" x="11.0" y="4.0" />
    <rect style="fill:#ffffff;stroke:none;fill-opacity:1" width="1.3" height="1.3" x="11.0" y="5.0" />
    <rect style="fill:#ffffff;stroke:none;fill-opacity:1" width="1.3" height="1.3" x="11.0" y="6.0" />
    <rect style="fill:#000000;stroke:none;fill-opacity:1" width="1.3" height="1.3" x="11.0" y="7.0" />
    <rect style="fill:#000000;stroke:none;fill-opacity:1" width="1.3" height="1.3" x="11.0" y="8.0" />
    <rect style="fill:#ffffff;stroke:none;fill-opacity:1" width="1.3" height="1.3" x="11.0" y="9.0" />
    <rect style="fill:#ffffff;stroke:none;fill-opacity:1" width="1.3" height="1.3" x="11.0" y="10.0" />
    <rect style="fill:#000000;stroke:none;fill-opacity:1" width="1.3" height="1.3" x="11.0" y="11.0" />
    <rect style="fill:#000000;stroke:none;fill-opacity:1" width="1.3" height="1.3" x="11.0" y="12.0" />
    <rect style="fill:#000080;stroke:none;fill-opacity:1" width="1.3" height="1.3" x="12.0" y="1.0" />
    <rect style="fill:#000080;stroke:none;fill-opacity:1" width="1.3" height="1.3" x="12.0" y="2.0" />
    <rect style="fill:#ffffff;stroke:none;fill-opacity:1" width="1.3" height="1.3" x="12.0" y="3.0" />
    <rect style="fill:#808080;stroke:none;fill-opacity:1" width="1.3" height="1.3" x="12.0" y="4.0" />
    <rect style="fill:#ffffff;stroke:none;fill-opacity:1" width="1.3" height="1.3" x="12.0" y="5.0" />
    <rect style="fill:#ffffff;stroke:none;fill-opacity:1" width="1.3" height="1.3" x="12.0" y="6.0" />
    <rect style="fill:#000000;stroke:none;fill-opacity:1" width="1.3" height="1.3" x="12.0" y="7.0" />
    <rect style="fill:#ffffff;stroke:none;fill-opacity:1" width="1.3" height="1.3" x="12.0" y="8.0" />
    <rect style="fill:#ffffff;stroke:none;fill-opacity:1" width="1.3" height="1.3" x="12.0" y="9.0" />
    <rect style="fill:#ffffff;stroke:none;fill-opacity:1" width="1.3" height="1.3" x="12.0" y="10.0" />
    <rect style="fill:#000000;stroke:none;fill-opacity:1" width="1.3" height="1.3" x="12.0" y="11.0" />
    <rect style="fill:#000000;stroke:none;fill-opacity:1" width="1.3" height="1.3" x="12.0" y="12.0" />
    <rect style="fill:#000080;stroke:none;fill-opacity:1" width="1.3" height="1.3" x="13.0" y="1.0" />
    <rect style="fill:#000080;stroke:none;fill-opacity:1" width="1.3" height="1.3" x="13.0" y="2.0" />
    <rect style="fill:#ffffff;stroke:none;fill-opacity:1" width="1.3" height="1.3" x="13.0" y="3.0" />
    <rect style="fill:#ffffff;stroke:none;fill-opacity:1" width="1.3" height="1.3" x="13.0" y="4.0" />
    <rect style="fill:#ffffff;stroke:none;fill-opacity:1" width="1.3" height="1.3" x="13.0" y="5.0" />
    <rect style="fill:#ffffff;stroke:none;fill-opacity:1" width="1.3" height="1.3" x="13.0" y="6.0" />
    <rect style="fill:#ffffff;stroke:none;fill-opacity:1" width="1.3" height="1.3" x="13.0" y="7.0" />
    <rect style="fill:#ffffff;stroke:none;fill-opacity:1" width="1.3" height="1.3" x="13.0" y="8.0" />
    <rect style="fill:#ffffff;stroke:none;fill-opacity:1" width="1.3" height="1.3" x="13.0" y="9.0" />
    <rect style="fill:#ffffff;stroke:none;fill-opacity:1" width="1.3" height="1.3" x="13.0" y="10.0" />
    <rect style="fill:#000000;stroke:none;fill-opacity:1" width="1.3" height="1.3" x="13.0" y="11.0" />
    <rect style="fill:#000000;stroke:none;fill-opacity:1" width="1.3" height="1.3" x="13.0" y="12.0" />
    <rect style="fill:#000080;stroke:none;fill-opacity:1" width="1.3" height="1.3" x="14.0" y="1.0" />
    <rect style="fill:#000080;stroke:none;fill-opacity:1" width="1.3" height="1.3" x="14.0" y="2.0" />
    <rect style="fill:#000000;stroke:none;fill-opacity:1" width="1.3" height="1.3" x="14.0" y="3.0" />
    <rect style="fill:#000000;stroke:none;fill-opacity:1" width="1.3" height="1.3" x="14.0" y="4.0" />
    <rect style="fill:#000000;stroke:none;fill-opacity:1" width="1.3" height="1.3" x="14.0" y="5.0" />
    <rect style="fill:#000000;stroke:none;fill-opacity:1" width="1.3" height="1.3" x="14.0" y="6.0" />
    <rect style="fill:#000000;stroke:none;fill-opacity:1" width="1.3" height="1.3" x="14.0" y="7.0" />
    <rect style="fill:#000000;stroke:none;fill-opacity:1" width="1.3" height="1.3" x="14.0" y="8.0" />
    <rect style="fill:#000000;stroke:none;fill-opacity:1" width="1.3" height="1.3" x="14.0" y="9.0" />
    <rect style="fill:#000000;stroke:none;fill-opacity:1" width="1.3" height="1.3" x="14.0" y="10.0" />
    <rect style="fill:#000000;stroke:none;fill-opacity:1" width="1.3" height="1.3" x="14.0" y="11.0" />
    <rect style="fill:#000000;stroke:none;fill-opacity:1" width="1.3" height="1.3" x="14.0" y="12.0" />
</svg>